<?xml version="1.0" encoding="UTF-8"?>
<svg width="120px" height="120px" viewBox="0 0 120 120" version="1.1" xmlns="http://www.w3.org/2000/svg" xmlns:xlink="http://www.w3.org/1999/xlink">
    <title>Artboard</title>
    <g id="Artboard" stroke="none" stroke-width="1" fill="none" fill-rule="evenodd">
        <rect id="Rectangle" fill="#1B2127" x="0" y="0" width="120" height="120" rx="40"></rect>
        <g id="icon" transform="translate(23.000000, 21.000000)" fill="#FFFFFF" fill-rule="nonzero">
            <path d="M28.5808716,0 C12.816005,0 0,12.8160075 0,28.5808716 C0,44.345761 12.816005,57.1617432 28.5808716,57.1617432 C35.862258,57.1617432 42.4962003,54.407255 47.5472221,49.9114486 L53.116289,55.4805155 L50.9359468,57.6608577 C50.6167387,57.9766803 50.4371221,58.4070647 50.4371221,58.8561056 C50.4371221,59.3051465 50.6167387,59.7355308 50.9359468,60.0513534 L64.3594995,73.5011754 C64.6753221,73.8203834 65.1057065,74 65.5547474,74 C66.0037882,74 66.4341726,73.8203834 66.7499952,73.5011754 L73.5011754,66.7499952 C73.8203834,66.4341726 74,66.0037882 74,65.5547474 C74,65.1057065 73.8203834,64.6753221 73.5011754,64.3594995 L60.0513534,50.9359468 C59.4415641,50.3002683 58.4445348,50.2429678 57.7659345,50.8046008 C57.7287395,50.8466024 57.6936701,50.8904391 57.6608577,50.9359468 L55.4805155,53.116289 L49.9377178,47.5472221 C54.4266345,42.4977899 57.1617432,35.8560114 57.1617432,28.5808716 C57.1617432,12.8160075 44.3457383,0 28.5808716,0 Z M28.5808716,3.36245548 C42.528532,3.36245548 53.7992878,14.6332129 53.7992878,28.5808716 C53.7992878,42.5285219 42.528532,53.7992878 28.5808716,53.7992878 C14.6332112,53.7992878 3.36245548,42.5285219 3.36245548,28.5808716 C3.36245548,14.6332129 14.6332112,3.36245548 28.5808716,3.36245548 Z M24.2201872,10.0873665 C23.353757,10.169025 22.692822,10.8983326 22.6965745,11.7685942 L22.6965745,15.6301642 C21.855795,16.0124249 21.0517849,16.4639438 20.3060788,16.9961617 L16.9698925,15.0785113 C16.171178,14.6200231 15.1522533,14.889394 14.6844736,15.6827025 L10.4814042,22.9855355 C10.022916,23.7842501 10.2922869,24.8031747 11.0855954,25.2709545 L14.4217817,27.2148741 C14.3773603,27.6679902 14.2904358,28.1147933 14.2904358,28.5808716 C14.2904358,29.04695 14.3773603,29.4937531 14.4217817,29.9468692 L11.0855954,31.8907887 C10.2922869,32.3585685 10.022916,33.3774931 10.4814042,34.1762077 L14.6844736,41.4790407 C15.1522533,42.2723492 16.171178,42.5417201 16.9698925,42.0832319 L20.3060788,40.1655815 C21.0517849,40.6978582 21.855795,41.1493519 22.6965745,41.5315791 L22.6965745,45.393149 C22.6966673,46.3216271 23.4493242,47.0743768 24.3778023,47.0743768 L32.783941,47.0743768 C33.712419,47.0743768 34.4650759,46.3216271 34.4651687,45.393149 L34.4651687,41.5315791 C35.3059482,41.1493519 36.1099584,40.6978582 36.8556644,40.1655815 L40.1918507,42.0832319 C40.9905653,42.5417201 42.0094899,42.2723492 42.4772697,41.4790407 L46.680339,34.1762077 C47.1388272,33.3774931 46.8694563,32.3585685 46.0761478,31.8907887 L42.7399615,29.9468692 C42.7843829,29.4937531 42.8713074,29.04695 42.8713074,28.5808716 C42.8713074,28.1147933 42.7843829,27.6679902 42.7399615,27.2148741 L46.0761478,25.2709545 C46.8694563,24.8031747 47.1388272,23.7842501 46.680339,22.9855355 L42.4772697,15.6827025 C42.0094899,14.889394 40.9905653,14.6200231 40.1918507,15.0785113 L36.8556644,16.9961617 C36.1099584,16.4639438 35.3059482,16.0124249 34.4651687,15.6301642 L34.4651687,11.7685942 C34.4650759,10.8401162 33.712419,10.0874593 32.783941,10.0873665 L24.3778023,10.0873665 C24.3252928,10.0849026 24.2726966,10.0849026 24.2201872,10.0873665 Z M26.05903,13.4498219 L31.1027132,13.4498219 L31.1027132,16.7072007 C31.1078456,17.4186565 31.5602152,18.0498699 32.2322881,18.2833517 C33.5107164,18.7376026 34.640187,19.4208788 35.647282,20.2798096 C36.1954846,20.7411692 36.9758333,20.8044407 37.5912015,20.4374247 L40.4282734,18.8087354 L42.950115,23.2219582 L40.1393123,24.8506476 C39.5227927,25.2059122 39.1966535,25.9107936 39.3249677,26.6106829 C39.443121,27.25693 39.5088519,27.9091539 39.5088519,28.5808716 C39.5088519,29.2525894 39.4431243,29.9048132 39.3249677,30.5510604 C39.1966535,31.2509496 39.5227927,31.9558311 40.1393123,32.3110957 L42.950115,33.939785 L40.4282734,38.3530079 L37.5912015,36.7243185 C36.9758333,36.3573025 36.1954846,36.420574 35.647282,36.8819336 C34.640187,37.7408728 33.5107164,38.4241238 32.2322881,38.8783915 C31.5602152,39.1118733 31.1078456,39.7430867 31.1027132,40.4545425 L31.1027132,43.7119213 L26.05903,43.7119213 L26.05903,40.4545425 C26.0538976,39.7430867 25.601528,39.1118733 24.9294551,38.8783915 C23.6510268,38.4241238 22.5215562,37.7408728 21.5144613,36.8819336 C20.9662586,36.420574 20.18591,36.3573025 19.5705417,36.7243185 L16.7334699,38.3530079 L14.2116283,33.939785 L17.0224309,32.3110957 C17.6389506,31.9558311 17.9650897,31.2509496 17.8367756,30.5510604 C17.7186223,29.9048132 17.6528913,29.2525894 17.6528913,28.5808716 C17.6528913,27.9091539 17.7186189,27.25693 17.8367756,26.6106829 C17.9650897,25.9107936 17.6389506,25.2059122 17.0224309,24.8506476 L14.2116283,23.2219582 L16.7334699,18.8087354 L19.5705417,20.4374247 C20.18591,20.8044407 20.9662586,20.7411692 21.5144613,20.2798096 C22.5215562,19.4208788 23.6510268,18.7376026 24.9294551,18.2833517 C25.601528,18.0498699 26.0538976,17.4186565 26.05903,16.7072007 L26.05903,13.4498219 Z M28.5808716,23.5371884 C31.3863347,23.5371884 33.6245548,25.7754069 33.6245548,28.5808716 C33.6245548,31.3863364 31.3863347,33.6245548 28.5808716,33.6245548 C25.7754077,33.6245548 23.5371884,31.3863364 23.5371884,28.5808716 C23.5371884,25.7754069 25.7754077,23.5371884 28.5808716,23.5371884 Z M58.842971,54.4822865 L69.9285664,65.5678819 L65.5678819,69.9285664 L54.4822865,58.842971 L58.842971,54.4822865 Z" id="Shape"></path>
        </g>
    </g>
</svg>