<?xml version="1.0" encoding="UTF-8"?>
<svg width="89px" height="89px" viewBox="0 0 89 89" version="1.1" xmlns="http://www.w3.org/2000/svg" xmlns:xlink="http://www.w3.org/1999/xlink">
    <!-- Generator: Sketch 47 (45396) - http://www.bohemiancoding.com/sketch -->
    <title>Group</title>
    <desc>Created with Sketch.</desc>
    <defs></defs>
    <g id="Page-1" stroke="none" stroke-width="1" fill="none" fill-rule="evenodd">
        <g id="Group" fill-rule="nonzero" fill="#000000">
            <path d="M34,0.36218 C15.246007,0.36218 0,15.60819 0,34.36218 C0,53.1162 15.246007,68.36218 34,68.36218 C42.661987,68.36218 50.55377,65.085422 56.5625,59.73718 L63.1875,66.36218 L60.59375,68.95593 C60.2140179,69.3316347 60.0003448,69.8436229 60.0003448,70.377805 C60.0003448,70.9119871 60.2140179,71.4239753 60.59375,71.79968 L76.5625,87.79968 C76.9382047,88.1794121 77.4501929,88.3930852 77.984375,88.3930852 C78.5185571,88.3930852 79.0305453,88.1794121 79.40625,87.79968 L87.4375,79.76843 C87.8172321,79.3927253 88.0309052,78.8807371 88.0309052,78.346555 C88.0309052,77.8123729 87.8172321,77.3003847 87.4375,76.92468 L71.4375,60.95593 C70.7120905,60.1997226 69.5260176,60.1315575 68.71875,60.79968 C68.6745026,60.8496453 68.6327838,60.9017938 68.59375,60.95593 L66,63.54968 L59.40625,56.92468 C64.746296,50.917841 68,43.016736 68,34.36218 C68,15.60819 52.753993,0.36218 34,0.36218 Z M34,4.36218 C50.592232,4.36218 64,17.76995 64,34.36218 C64,50.9544 50.592232,64.36218 34,64.36218 C17.407768,64.36218 4,50.9544 4,34.36218 C4,17.76995 17.407768,4.36218 34,4.36218 Z M28.8125,12.36218 C27.7817888,12.4593216 26.995536,13.3269109 27,14.36218 L27,18.95593 C25.999803,19.41067 25.043347,19.9478 24.15625,20.58093 L20.1875,18.29968 C19.2373437,17.7542593 18.025224,18.0747048 17.46875,19.01843 L12.46875,27.70593 C11.9233293,28.6560863 12.2437748,29.868206 13.1875,30.42468 L17.15625,32.73718 C17.103406,33.27621 17,33.80773 17,34.36218 C17,34.91663 17.103406,35.44815 17.15625,35.98718 L13.1875,38.29968 C12.2437748,38.856154 11.9233293,40.0682737 12.46875,41.01843 L17.46875,49.70593 C18.025224,50.6496552 19.2373437,50.9701007 20.1875,50.42468 L24.15625,48.14343 C25.043347,48.77663 25.999803,49.31373 27,49.76843 L27,54.36218 C27.0001104,55.4667038 27.8954762,56.3620696 29,56.36218 L39,56.36218 C40.1045238,56.3620696 40.9998896,55.4667038 41,54.36218 L41,49.76843 C42.000197,49.31373 42.956653,48.77663 43.84375,48.14343 L47.8125,50.42468 C48.7626563,50.9701007 49.974776,50.6496552 50.53125,49.70593 L55.53125,41.01843 C56.0766707,40.0682737 55.7562252,38.856154 54.8125,38.29968 L50.84375,35.98718 C50.896594,35.44815 51,34.91663 51,34.36218 C51,33.80773 50.896594,33.27621 50.84375,32.73718 L54.8125,30.42468 C55.7562252,29.868206 56.0766707,28.6560863 55.53125,27.70593 L50.53125,19.01843 C49.974776,18.0747048 48.7626563,17.7542593 47.8125,18.29968 L43.84375,20.58093 C42.956653,19.9478 42.000197,19.41067 41,18.95593 L41,14.36218 C40.9998896,13.2576562 40.1045238,12.3622904 39,12.36218 L29,12.36218 C28.9375344,12.359249 28.8749656,12.359249 28.8125,12.36218 Z M31,16.36218 L37,16.36218 L37,20.23718 C37.0061055,21.0835327 37.5442475,21.8344285 38.34375,22.11218 C39.864577,22.65256 41.208203,23.46539 42.40625,24.48718 C43.0583956,25.0360165 43.9867037,25.1112847 44.71875,24.67468 L48.09375,22.73718 L51.09375,27.98718 L47.75,29.92468 C47.016584,30.3473052 46.6286066,31.185837 46.78125,32.01843 C46.921806,32.78721 47,33.5631 47,34.36218 C47,35.16126 46.92181,35.93715 46.78125,36.70593 C46.6286066,37.538523 47.016584,38.3770548 47.75,38.79968 L51.09375,40.73718 L48.09375,45.98718 L44.71875,44.04968 C43.9867037,43.6130753 43.0583956,43.6883435 42.40625,44.23718 C41.208203,45.25898 39.864577,46.07178 38.34375,46.61218 C37.5442475,46.8899315 37.0061055,47.6408273 37,48.48718 L37,52.36218 L31,52.36218 L31,48.48718 C30.9938945,47.6408273 30.4557525,46.8899315 29.65625,46.61218 C28.135423,46.07178 26.791797,45.25898 25.59375,44.23718 C24.9416044,43.6883435 24.0132963,43.6130753 23.28125,44.04968 L19.90625,45.98718 L16.90625,40.73718 L20.25,38.79968 C20.983416,38.3770548 21.3713934,37.538523 21.21875,36.70593 C21.078194,35.93715 21,35.16126 21,34.36218 C21,33.5631 21.07819,32.78721 21.21875,32.01843 C21.3713934,31.185837 20.983416,30.3473052 20.25,29.92468 L16.90625,27.98718 L19.90625,22.73718 L23.28125,24.67468 C24.0132963,25.1112847 24.9416044,25.0360165 25.59375,24.48718 C26.791797,23.46539 28.135423,22.65256 29.65625,22.11218 C30.4557525,21.8344285 30.9938945,21.0835327 31,20.23718 L31,16.36218 Z M34,24.36218 C28.500841,24.36218 24,28.86302 24,34.36218 C24,39.86134 28.500841,44.36218 34,44.36218 C39.499159,44.36218 44,39.86134 44,34.36218 C44,28.86302 39.499159,24.36218 34,24.36218 Z M34,28.36218 C37.337398,28.36218 40,31.02478 40,34.36218 C40,37.69958 37.337398,40.36218 34,40.36218 C30.662601,40.36218 28,37.69958 28,34.36218 C28,31.02478 30.662601,28.36218 34,28.36218 Z M70,65.17468 L83.1875,78.36218 L78,83.54968 L64.8125,70.36218 L70,65.17468 Z" id="Shape"></path>
        </g>
    </g>
</svg>